<svg id="Layer_1" data-name="Layer 1" xmlns="http://www.w3.org/2000/svg" viewBox="0 0 2100 631.74"><defs><style>.cls-1{fill:#231f20;fill-rule:evenodd;}.cls-2{fill:#23c386;}.cls-3{fill:#0e6655;}.cls-4{fill:#b22449;}.cls-5{fill:#e6325a;}.cls-6{fill:#fff;}.cls-7{fill:#222;}</style></defs><g id="Layer_2" data-name="Layer 2"><g id="Artwork"><g id="logo_light" data-name="logo light"><path class="cls-1" d="M816.65,355.37V300.55h161v19.24c0,83.93-62,149.3-148.78,149.3-91.42,0-157.64-67.25-157.64-153.22,0-86.3,66.73-153.21,155.26-153.21,60.43,0,111,29.11,138.06,76.44l1.53,2.72-55.33,33-1.7-3.07C891.22,239.27,864,223.1,826.87,223.1a92.41,92.41,0,0,0-92.78,92.09v.68c0,52.61,40.51,92.78,94.82,92.78,39.32,0,68.43-19.06,79.84-53.28Z"/><path class="cls-1" d="M1125,258.85a67.17,67.17,0,0,0-16.52-2.05c-16.51,0-42.55,6.47-53.11,29.28V258.85h-60.6V460.91h62.64V372.73c0-40.34,22.64-55,47.84-55a85.65,85.65,0,0,1,19.75,2V258.85Z"/><path class="cls-1" d="M1335.36,356.56c0-65-39.16-103.67-102.65-103.67-53.12,0-102.32,41.53-102.32,106.56,0,67.93,50.22,107.76,106.74,107.76,51.92,0,84.61-29.28,94.48-64.18l-52.43-14.64c-5.79,15.84-18.56,26.39-41.2,26.39-24.34,0-45.28-16.34-46.64-39H1334A104.88,104.88,0,0,0,1335.36,356.56ZM1193,335.79c1.19-15,14.47-34.22,40.86-34.22,29.62,0,40.34,18.73,41.19,34.22Z"/><path class="cls-1" d="M1414.17,461.08V344.81c0-18.38,11.92-34.89,33.88-34.89,22.64,0,33,15,33,34.21V461.25h61.79V344.47c0-17.87,11.92-34.55,34.22-34.55s32.51,15,32.51,34.21V461.25h60.61V330.34c0-54.81-37.11-77.28-75.93-77.28-27.58,0-47.32,8.85-63.49,31.66-10.39-19.92-31.33-31.66-60.61-31.66-22.3,0-48.68,11.4-58.9,29.28V258.85h-59.75V460.91h62.64Z"/><polygon class="cls-1" points="1753.96 461.08 1753.96 166.58 1690.98 166.58 1690.98 461.08 1753.96 461.08"/><polygon class="cls-1" points="1836.7 460.91 1836.7 258.85 1774.39 258.85 1774.39 460.91 1836.7 460.91"/><path class="cls-1" d="M1769.28,199.6a36.26,36.26,0,1,0,36.26-36.26H1805A36.19,36.19,0,0,0,1769.28,199.6Z"/><path class="cls-1" d="M1920.11,345.15c0-20.42,13.28-35.4,33.88-35.4,22.64,0,33.36,15,33.36,34.89V460.91H2050V334.09c0-44.26-23.15-80.52-74.56-80.52-20.94,0-46.14,9.36-57.37,28.43V258.85h-60.6V460.91h62.64V345.15Z"/></g></g></g><g id="Layer_2-2" data-name="Layer 2"><g id="Artwork-2" data-name="Artwork"><g id="full-color_mascot" data-name="full-color mascot"><path class="cls-2" d="M389.68,436.61a28.44,28.44,0,0,0-18.62,16.27s-1.32,7.52-41.32,8h-1.22c-40-.59-41.31-8-41.31-8a28.42,28.42,0,0,0-18.62-16.27C199.31,425.21,189,402.27,187,385.52c-1.21-9.64,1.88-23.07,4.93-33.57,6.88-23.7,16.45-56.16,7.91-76-4.7-10.92-17.52-26.65-51.81-39.3l-.59-.22c-6.21-2.19-28-10.92-40.76-16.94a93.33,93.33,0,0,1-33.82-25.11,99.81,99.81,0,0,1-15.28-24.18c68,45.46,114.28,35.26,133.93,45.2a40.49,40.49,0,0,1,18.87,20.87c20.06-30.81,55.75-50.5,113.56-50.5h10.33c57.84,0,93.53,19.69,113.56,50.5a40.43,40.43,0,0,1,18.88-20.87c19.66-9.94,65.94.26,133.94-45.24a102.85,102.85,0,0,1-28,36.81c-10.41,8.87-28.7,16-48,23.6-29.81,11.55-60.75,23.89-66.24,44.68-5.57,21.31,2,49.81,8.16,75.17a155.87,155.87,0,0,1,4.95,32.35C470.63,399.81,462.79,424.58,389.68,436.61Z"/><path class="cls-3" d="M608.2,170.19a7.53,7.53,0,0,0-7.49-7.53h-.33a7.37,7.37,0,0,0-4,1.32c-45.47,30.39-81.25,35.14-104.92,38.29-11.71,1.56-20.94,2.78-28.17,6.43l-.08.05A48.1,48.1,0,0,0,447,222.47c-24-29.34-61.87-44.21-112.82-44.21H323.87c-50.95,0-88.8,14.87-112.82,44.21a48.07,48.07,0,0,0-16.17-13.72h-.08c-7.23-3.64-16.46-4.89-28.17-6.45C143,199.12,107.23,194.37,61.72,164a7.53,7.53,0,0,0-11.06,9.34c1.23,2.76,6,15.24,7.35,18.72,5.82,15.17,27.48,47,31.8,84.86.46,3.64,1.11,7.89,2,12.16l21.9,3.25L96.38,305.4a91.64,91.64,0,0,0,25.68,39.81l25.48-12.9-9.46,23.06c11.35,5,26.77,7.08,43.87,4.9-2.49,10.77-3.29,19.41-2.44,26.21,2.18,17.6,11.51,26.93,18.35,32.47,14.28,11.51,36.88,19.7,69.09,25a20.69,20.69,0,0,1,13.16,11.46c2.78,8.37,18.2,12.49,48.31,12.93h1.41c17.44-.2,30.27-1.74,38.15-4.59,6.63-2.4,9.23-5.62,10.19-8.26A20.67,20.67,0,0,1,391.35,444c33.88-5.61,57.21-14.36,71.33-26.74C476.43,405.18,478.59,392,479,383.17v-.73a163,163,0,0,0-2.57-22.25,101,101,0,0,0,17.47.85l-3-22.57,15.42,20,1.63-13.17,9.79,10.54a70.66,70.66,0,0,0,31.49-26.63l-25.41-21.62,33.08,7.64a102.35,102.35,0,0,0,9.67-30.17l-14.74-7.31s16.56-2.42,16.56-2.49L547,264.86l22.74.22c6.9-32.92,25-59.69,30.3-73.16,1.3-3.3,6.16-15.59,7.44-18.41A7.49,7.49,0,0,0,608.2,170.19ZM389.68,436.6a28.42,28.42,0,0,0-18.62,16.27s-1.32,7.51-41.32,7.95h-1.22c-40-.58-41.31-7.95-41.31-7.95a28.39,28.39,0,0,0-18.62-16.27C199.31,425.21,189,402.27,187,385.52c-1.21-9.64,1.88-23.07,4.93-33.57,6.88-23.7,16.45-56.16,7.91-76-4.7-10.92-17.52-26.65-51.81-39.3l-.59-.22c-6.21-2.19-28-10.92-40.76-16.94a93.33,93.33,0,0,1-33.82-25.11,99.81,99.81,0,0,1-15.28-24.18c68,45.46,114.28,35.26,133.93,45.2a40.49,40.49,0,0,1,18.87,20.87c20.06-30.81,55.75-50.5,113.56-50.5h10.33c57.84,0,93.53,19.69,113.56,50.5a40.43,40.43,0,0,1,18.88-20.87c19.66-9.94,65.94.26,133.94-45.24a102.85,102.85,0,0,1-28,36.81c-10.41,8.87-28.7,16-48,23.6-29.81,11.55-60.75,23.89-66.24,44.68-5.57,21.31,2,49.81,8.16,75.17a155.87,155.87,0,0,1,4.95,32.35c-.83,17-8.67,41.78-81.78,53.81Z"/><g id="Spots"><path class="cls-3" d="M342.5,202.4c4.06-2.79,22.68-.44,22.68-.44,4.37.63,7.33,3.89,5,6a25.1,25.1,0,0,1-19.47,3.64C341.54,209.85,338.4,205.19,342.5,202.4Z"/><path class="cls-3" d="M341.07,220c10.48.51,4.76,11-1.51,12.24s-15.94-2-14.66-5.94S335.64,219.67,341.07,220Z"/><path class="cls-3" d="M308.44,200.51c7.59-.88,17,7.33,17.63,10.78.81,4.29-4.54,6.13-17.63,8s-25-4.37-25-8S300.81,201.23,308.44,200.51Z"/></g><g id="Creases"><path class="cls-3" d="M270.34,349.36c2.66-.57,24-5.6,29.05-20.51C299.5,328.85,306.71,352.08,270.34,349.36Z"/><path class="cls-3" d="M359.07,328.85c5.49,15.91,29.32,20.57,29.32,20.57C349.54,351.29,359.07,328.85,359.07,328.85Z"/></g><g id="Brow"><path class="cls-3" d="M222.19,281.17c16.27-.51,36.65,17.83,67.63,30,11.29,4.44,23.5,8,25.25,8.5s-11,1.37-18.33,2.19a36.21,36.21,0,0,1-33,18c-21.67,0-32.07-13.46-34.64-27.43a40,40,0,0,1-.59-11.71s9.47-1.31,29.8,3.31c-12.61-6.28-23.17-11-32.51-11.34a48.14,48.14,0,0,0-16.41,2.45S212.32,281.39,222.19,281.17Z"/><path class="cls-3" d="M435,292.72v.08c-9.31.37-20,5.09-32.48,11.33,20.27-4.62,29.8-3.3,29.8-3.3a41.37,41.37,0,0,1-.62,11.7c-2.53,14-13,27.43-34.64,27.43a36.3,36.3,0,0,1-33-18c-7.33-.84-20.12-1.69-18.33-2.18s13.94-4.07,25.26-8.51c31.09-12.21,51.33-30.57,67.64-30,9.82.3,12.61,14.05,12.61,14.05A47.72,47.72,0,0,0,435,292.72Z"/></g><g id="Eyes"><path class="cls-4" d="M402.46,304.23c20.23-4.62,29.73-3.27,29.73-3.27a41.37,41.37,0,0,1-.62,11.7c-2.52,14-12.95,27.44-34.56,27.44a36.18,36.18,0,0,1-32.91-18C377.47,317.59,391,310.8,402.46,304.23Z"/><path class="cls-4" d="M296.8,322.07a36.16,36.16,0,0,1-32.91,18c-21.61,0-32-13.46-34.56-27.44a41.44,41.44,0,0,1-.62-11.71s9.5-1.31,29.73,3.31C269.91,310.8,283.44,317.59,296.8,322.07Z"/></g><g id="Pupil_Shine" data-name="Pupil Shine"><path id="Pupil" class="cls-5" d="M251.41,312.09s33.62,8.32,32.41,14.43-11.85,11.25-22,9.05-16.45-13.69-18.38-17.11-2.66-10.28,8-6.37Z"/><path id="Pupil-2" class="cls-5" d="M410.62,312.09s-33.61,8.32-32.4,14.43,11.85,11.25,22,9.05,16.45-13.69,18.38-17.11,2.66-10.28-8-6.37Z"/><path id="Shine" class="cls-6" d="M271.24,318.7s10.88,2.69,11.12,7.58-16-5.63-20.07-7.34S262.05,315.51,271.24,318.7Z"/><path id="Shine-2" class="cls-6" d="M390.59,318.7s-10.89,2.69-11.13,7.58,16-5.63,20.08-7.34S399.78,315.51,390.59,318.7Z"/></g><path id="Grin" class="cls-7" d="M439.49,350.8c-1.07,12.94-9.94,20.27-34.06,20.27-2.91,0-6-.1-9.28-.32-26-1.69-37.35-5.36-65.57-5.36s-39.56,3.74-65.51,5.36a92.72,92.72,0,0,1-9.28.32c-24.11,0-33-7.22-34.08-20.27C202,367,227.35,390.22,246.81,400s44.4,14.78,79.95,15.81h7.78c35.51-1.14,60.48-6,80-15.81v-.07C433.6,390.37,459.28,367,439.49,350.8Z"/><g id="Teeth"><path class="cls-6" d="M232.84,385.23c-5.94-5-15-13.91-13.53-22.66a.58.58,0,0,1,.68-.46.57.57,0,0,1,.39.27c4.19,7,12.08,10.58,19.89,12.1a.58.58,0,0,1,.47.68.65.65,0,0,1-.09.23l-7,9.74a.58.58,0,0,1-.82.12Z"/><path class="cls-6" d="M247.41,395.07a83.8,83.8,0,0,1-9.72-6,.87.87,0,0,1-.2-1.21l7.5-10.57a.59.59,0,0,1,.81-.14.6.6,0,0,1,.24.38l2.63,16.64C248.83,395.1,248.25,395.51,247.41,395.07Z"/><path class="cls-6" d="M253.57,395.36l-2.78-17.66a1.73,1.73,0,0,1,1.44-2,1.83,1.83,0,0,1,.33,0c1.09,0,2.18,0,3.2,0a95.19,95.19,0,0,0,9.65-.35l.76-.05A1.74,1.74,0,0,1,268,377a1.71,1.71,0,0,1-.34,1.16l-13.07,17.51a.57.57,0,0,1-.81.11A.61.61,0,0,1,253.57,395.36Z"/><path class="cls-6" d="M283.66,407a148,148,0,0,1-23.3-6.22,2.33,2.33,0,0,1-1.4-3,2.19,2.19,0,0,1,.33-.6c3.91-5.26,12.9-17.33,15.33-20.65a.59.59,0,0,1,.82-.13.56.56,0,0,1,.21.29l10.64,27.18a2.31,2.31,0,0,1-2.63,3.11Z"/><path class="cls-6" d="M292,406.17,280.75,377a2.31,2.31,0,0,1,1.33-3,2.24,2.24,0,0,1,.58-.14c3.22-.36,6.29-.73,9.31-1.11,5.48-.67,10.81-1.33,16.74-1.83a1.75,1.75,0,0,1,1.88,1.61,1.72,1.72,0,0,1-.2.94L293,406.24a.58.58,0,0,1-.77.28A.56.56,0,0,1,292,406.17Z"/><path class="cls-6" d="M322.69,411c-7.92-.31-15.29-.84-22.24-1.59a2.33,2.33,0,0,1-2.06-2.57,2.12,2.12,0,0,1,.25-.82l14.86-28.49a.59.59,0,0,1,.78-.26.58.58,0,0,1,.29.34L325,407.91a2.32,2.32,0,0,1-1.44,2.95A2.62,2.62,0,0,1,322.69,411Z"/><path class="cls-6" d="M331.12,408.3a.58.58,0,0,1-1.1,0l-12-35a2.33,2.33,0,0,1,1.45-3,2.41,2.41,0,0,1,.65-.12c3.23-.12,6.68-.19,10.44-.19s7.2.07,10.43.19a2.33,2.33,0,0,1,2.23,2.42,2.41,2.41,0,0,1-.12.66Z"/><path class="cls-6" d="M360.52,409.41c-6.92.73-14.31,1.28-22.23,1.59a2.33,2.33,0,0,1-2.42-2.24,2.41,2.41,0,0,1,.12-.84l10.39-30.31a.58.58,0,0,1,.74-.36.57.57,0,0,1,.33.28L362.34,406a2.33,2.33,0,0,1-1,3.14A2.22,2.22,0,0,1,360.52,409.41Z"/><path class="cls-6" d="M368,406.23l-17.35-32.75a1.75,1.75,0,0,1,.73-2.36,1.7,1.7,0,0,1,1-.2c5.9.5,11.24,1.16,16.74,1.83,3.25.4,6.55.81,10.06,1.19a1.74,1.74,0,0,1,1.56,1.9,1.47,1.47,0,0,1-.11.46l-11.48,29.85a.58.58,0,0,1-.7.43A.58.58,0,0,1,368,406.23Z"/><path class="cls-6" d="M400.63,400.73A147,147,0,0,1,377.3,407a2.31,2.31,0,0,1-2.58-3.13l10.64-27.16a.58.58,0,0,1,.75-.33.52.52,0,0,1,.26.2c2.44,3.32,11.42,15.39,15.34,20.65a2.33,2.33,0,0,1-.52,3.25A2,2,0,0,1,400.63,400.73Z"/><path class="cls-6" d="M410.19,377.7l-2.79,17.66a.58.58,0,0,1-.65.49.55.55,0,0,1-.38-.23l-13.11-17.51a1.74,1.74,0,0,1,.35-2.43,1.79,1.79,0,0,1,1.16-.35l.77.05a95.1,95.1,0,0,0,9.64.35c1.05,0,2.12,0,3.21,0a1.73,1.73,0,0,1,1.82,1.64A2.3,2.3,0,0,1,410.19,377.7Z"/><path class="cls-6" d="M423.28,389a82.49,82.49,0,0,1-9.71,6.06c-.85.44-1.42,0-1.27-.91l2.63-16.69a.59.59,0,0,1,.67-.48.6.6,0,0,1,.38.24l7.51,10.57a.88.88,0,0,1-.21,1.21Z"/><path class="cls-6" d="M431.8,382.08c-1.09,1.07-2.26,2.12-3.49,3.16a.58.58,0,0,1-.82-.07l0,0-7-9.78a.59.59,0,0,1,.14-.81.46.46,0,0,1,.23-.09,35.82,35.82,0,0,0,12.76-4.75,22,22,0,0,0,7.15-7.32.58.58,0,0,1,.8-.19.57.57,0,0,1,.27.4,10.69,10.69,0,0,1,.06,3C441.34,370.5,437.85,376.21,431.8,382.08Z"/></g></g></g></g></svg>